<svg width="28" height="25" viewBox="0 0 28 25" fill="none" xmlns="http://www.w3.org/2000/svg">
<path opacity="0.2" d="M9.31256 21.4375V13.8051L14.5122 18.3649L10.9251 22.0867C10.7954 22.2212 10.6286 22.3139 10.446 22.3529C10.2633 22.392 10.0732 22.3755 9.89992 22.3058C9.72666 22.236 9.57819 22.1161 9.47354 21.9614C9.36889 21.8067 9.31283 21.6243 9.31256 21.4375ZM26.027 1.75821L2.28131 11.0524C2.13388 11.1091 2.00883 11.2121 1.92493 11.346C1.84104 11.4799 1.80283 11.6373 1.81603 11.7947C1.82924 11.9522 1.89315 12.1011 1.99818 12.2191C2.1032 12.3371 2.24367 12.4178 2.3985 12.4492L9.31256 13.8051L26.1876 1.89298C26.1926 1.87182 26.1917 1.84966 26.1849 1.829C26.178 1.80834 26.1656 1.78999 26.1489 1.776C26.1323 1.76201 26.112 1.75293 26.0905 1.74979C26.069 1.74665 26.047 1.74957 26.027 1.75821Z" fill="#323232"/>
<path d="M26.7594 1.06914C26.6141 0.943711 26.4374 0.860293 26.2483 0.827873C26.0591 0.795452 25.8647 0.815257 25.686 0.885155L1.93674 10.1793C1.60016 10.3102 1.31521 10.5469 1.12478 10.8537C0.934348 11.1605 0.848752 11.5209 0.880875 11.8806C0.912998 12.2403 1.0611 12.5799 1.30289 12.8481C1.54468 13.1164 1.86706 13.2988 2.22151 13.368L8.37502 14.5762V21.4375C8.37381 21.8112 8.48487 22.1767 8.69382 22.4866C8.90277 22.7964 9.19996 23.0364 9.5469 23.1754C9.89329 23.3168 10.2742 23.3508 10.6402 23.2728C11.0061 23.1949 11.3402 23.0086 11.5989 22.7383L14.566 19.6609L19.2735 23.7812C19.6131 24.0825 20.0511 24.2492 20.5051 24.25C20.704 24.2498 20.9017 24.2186 21.091 24.1574C21.4004 24.0593 21.6786 23.8818 21.8979 23.6427C22.1173 23.4036 22.2702 23.1111 22.3414 22.7945L27.0981 2.10156C27.1406 1.91494 27.1316 1.72026 27.0719 1.53838C27.0123 1.35651 26.9042 1.1943 26.7594 1.06914ZM19.5946 5.28789L9.09573 12.8066L3.28205 11.6664L19.5946 5.28789ZM10.25 21.4375V15.8734L13.1551 18.4211L10.25 21.4375ZM20.5074 22.375L10.8184 13.8789L24.7637 3.88398L20.5074 22.375Z" fill="#323232"/>
</svg>
